<?xml version="1.0" encoding="utf-8"?>
<?xml-stylesheet type="text/xsl" href="rss1.xsl"?>
<rss version="2.0" xmlns:atom="http://www.w3.org/2005/Atom" xmlns:content="http://purl.org/rss/1.0/modules/content/" xmlns:dc="http://purl.org/dc/elements/1.1/" xmlns:media="http://search.yahoo.com/mrss/">
<channel>
 <title>Getty</title>
 <link>http://www.gettyimg.com/</link>
 <atom:link href="http://www.gettyimg.com/" rel="self" type="application/rss+xml" />

 
                <item>
                <title><![CDATA[【Interviews / TV shows / Others】HDTV - Alex Aster - 2023-11-08 The Kelly Clarkson Show - Interview [LiveHD]]]></title>
                <link><![CDATA[https://sharemania.us/threads/alex-aster-2023-11-08-the-kelly-clarkson-show-interview-livehd.231923/]]></link>
                <description><![CDATA[<article>
<blockquote class="messageText SelectQuoteContainer ugc baseHtml">
<a href="https://imgbox.com/zNy4oAMs" target="_blank" class="externalLink" rel="nofollow"><img src="https://thumbs2.imgbox.com/7d/a8/zNy4oAMs_t.jpg" class="bbCodeImage LbImage" alt="[​IMG]" data-url="https://thumbs2.imgbox.com/7d/a8/zNy4oAMs_t.jpg"></a><br>
<a href="https://imgbox.com/EXGZhOfw" target="_blank" class="externalLink" rel="nofollow"><img src="https://thumbs2.imgbox.com/bc/92/EXGZhOfw_t.jpg" class="bbCodeImage LbImage" alt="[​IMG]" data-url="https://thumbs2.imgbox.com/bc/92/EXGZhOfw_t.jpg"></a><br>
<br>
<div class="ToggleTriggerAnchor bbCodeSpoilerContainer">
<button type="button" class="button bbCodeSpoilerButton ToggleTrigger Tooltip JsOnly" data-target="> .SpoilerTarget"><span>Spoiler</span></button>
<div class="SpoilerTarget bbCodeSpoilerText">Format : MPEG-TS<br>
File size : 331 MiB<br>
Duration : 7 min 7 s<br>
Overall bit rate mode : Variable<br>
Overall bit rate : 6 504 kb/s<br>
Law rating : TV-G<br>
<br>
Video<br>
ID : 81 (0x51)<br>
Menu ID : 1 (0x1)<br>
Format : MPEG Video<br>
Format version : Version 2<br>
Format profile : Main@High<br>
Format settings : CustomMatrix / BVOP<br>
Format settings, BVOP : Yes<br>
Format settings, Matrix : Custom<br>
Format settings, GOP : Variable<br>
Format settings, picture struc : Frame<br>
Codec ID : 2<br>
Duration : 7 min 6 s<br>
Bit rate mode : Variable<br>
Bit rate : 5 698 kb/s<br>
Maximum bit rate : 17.6 Mb/s<br>
Width : 1 920 pixels<br>
Height : 1 080 pixels<br>
Display aspect ratio : 16:9<br>
Frame rate : 29.970 (30000/1001) FPS<br>
Color space : YUV<br>
Chroma subsampling : 4:2:0<br>
Bit depth : 8 bits<br>
Scan type : Interlaced<br>
Scan order : Top Field First<br>
Compression mode : Lossy<br>
Bits/(Pixel*Frame) : 0.092<br>
Time code of first frame : 00:00:00;00<br>
Time code source : Group of pictures header<br>
GOP, Open/Closed : Open<br>
GOP, Open/Closed of first fram : Closed<br>
Stream size : 290 MiB (88%)<br>
<br>
Audio #1<br>
ID : 84 (0x54)<br>
Menu ID : 1 (0x1)<br>
Format : AC-3<br>
Format/Info : Audio Coding 3<br>
Commercial name : Dolby Digital<br>
Codec ID : 6<br>
Duration : 7 min 6 s<br>
Bit rate mode : Constant<br>
Bit rate : 384 kb/s<br>
Channel(s) : 6 channels<br>
Channel layout : L R C LFE Ls Rs<br>
Sampling rate : 48.0 kHz<br>
Frame rate : 31.250 FPS (1536 SPF)<br>
Compression mode : Lossy<br>
Delay relative to video : 5 ms<br>
Stream size : 19.5 MiB (6%)<br>
Language : English<br>
Service kind : Complete Main<br>
<br>
Audio #2<br>
ID : 85 (0x55)<br>
Menu ID : 1 (0x1)<br>
Format : AC-3<br>
Format/Info : Audio Coding 3<br>
Commercial name : Dolby Digital<br>
Codec ID : 6<br>
Duration : 7 min 6 s<br>
Bit rate mode : Constant<br>
Bit rate : 96.0 kb/s<br>
Channel(s) : 2 channels<br>
Channel layout : L R<br>
Sampling rate : 48.0 kHz<br>
Frame rate : 31.250 FPS (1536 SPF)<br>
Compression mode : Lossy<br>
Delay relative to video : 5 ms<br>
Stream size : 4.88 MiB (1%)<br>
Language : English<br>
Service kind : Complete Main<br>
<br>
Text #1<br>
ID : 81 (0x51)-CC1<br>
Menu ID : 1 (0x1)<br>
Format : EIA-608<br>
Muxing mode : A/53 / DTVCC Transport<br>
Muxing mode, more info : Muxed in Video #1<br>
Duration : 7 min 6 s<br>
Duration of the visible conten : 7 min 0 s<br>
Start time (commands) : 6 s 85 ms<br>
Start time : 6 s 218 ms<br>
End time : 7 min 6 s<br>
Bit rate mode : Constant<br>
Stream size : 0.00 Byte (0%)<br>
Type of the first event : RollUp<br>
<br>
Text #2<br>
ID : 81 (0x51)-1<br>
Menu ID : 1 (0x1)<br>
Format : EIA-708<br>
Muxing mode : A/53 / DTVCC Transport<br>
Muxing mode, more info : Muxed in Video #1<br>
Duration : 7 min 6 s<br>
Bit rate mode : Constant<br>
Stream size : 0.00 Byte (0%)</div>
</div>
<div class="bbCodeBlock bbCodeVfcHH HiddenContent">
<div class="attribution type">Hidden Content:</div>
<blockquote>You must either reply or click 'Like' to see the hidden information contained here.</blockquote>
</div>
<div class="messageTextEndMarker">&nbsp;</div>
</blockquote>
</article>]]></description>
                <author><![CDATA[LiveHD]]></author>
                </item>

                
                <item>
                <title><![CDATA[【Albums (lossless)】FLAC - Passenger - All The Little Lights (Anniversary Edition) 2 CDs | Qobuz Hi-Res 24bit / 48.0kHz]]></title>
                <link><![CDATA[https://sharemania.us/threads/passenger-all-the-little-lights-anniversary-edition-2-cds-qobuz-hi-res-24bit-48-0khz.231924/]]></link>
                <description><![CDATA[<article>
<blockquote class="messageText SelectQuoteContainer ugc baseHtml">
<div style="text-align: center"><img src="https://static.qobuz.com/images/covers/qb/1b/akch425i61bqb_600.jpg" class="bbCodeImage LbImage" alt="[​IMG]" data-url="https://static.qobuz.com/images/covers/qb/1b/akch425i61bqb_600.jpg" style=""><br>
<b>Tracklist<br>
Disc 1</b><br>
1. Things That Stop You Dreaming<br>
2. Let Her Go (feat. Ed Sheeran)<br>
3. Staring At The Stars<br>
4. All The Little Lights<br>
5. The Wrong Direction<br>
6. Circles<br>
7. Keep On Walking<br>
8. Patient Love<br>
9. Life’s For The Living<br>
10. Holes<br>
11. Feather On The Clyde<br>
<b>Disc 2</b><br>
12. Things That Stop You Dreaming (Acoustic)<br>
13. Let Her Go (feat. Ed Sheeran) (Acoustic)<br>
14. Staring At The Stars (Acoustic)<br>
15. All The Little Lights (Acoustic)<br>
16. The Wrong Direction (Acoustic)<br>
17. Circles (Acoustic)<br>
18. Keep On Walking (Acoustic)<br>
19. Patient Love (Acoustic)<br>
20. Life’s For The Living (Acoustic)<br>
21. Holes (Acoustic)<br>
22. Feather On The Clyde (Acoustic)<br>
<div class="bbCodeBlock bbCodeVfcHH HiddenContent">
<div class="attribution type">Hidden Content:</div>
<blockquote>You must reply before you can see the hidden data contained here.</blockquote>
</div></div>
<div class="messageTextEndMarker">&nbsp;</div>
</blockquote>
</article>]]></description>
                <author><![CDATA[Yennefer]]></author>
                </item>

                
                <item>
                <title><![CDATA[【HD Live Performances】FEED - Elodie - Red Light @ X Factor Italia 2023.02.11 1080i Sat FEED 4.2.2-PCM-TSS]]></title>
                <link><![CDATA[https://sharemania.us/threads/elodie-red-light-x-factor-italia-2023-02-11-1080i-sat-feed-4-2-2-pcm-tss.231925/]]></link>
                <description><![CDATA[<article>
<blockquote class="messageText SelectQuoteContainer ugc baseHtml">
Thanks
<div class="messageTextEndMarker">&nbsp;</div>
</blockquote>
</article>]]></description>
                <author><![CDATA[theslothsidd]]></author>
                </item>

                </channel></rss>